<?xml version="1.0" standalone="no"?>
<!DOCTYPE svg PUBLIC "-//W3C//DTD SVG 20010904//EN"
 "http://www.w3.org/TR/2001/REC-SVG-20010904/DTD/svg10.dtd">
<svg version="1.0" xmlns="http://www.w3.org/2000/svg"
 width="900.000000pt" height="900.000000pt" viewBox="0 0 900.000000 900.000000"
 preserveAspectRatio="xMidYMid meet">
<metadata>
Created by potrace 1.11, written by Peter Selinger 2001-2013
</metadata>
<g transform="translate(0.000000,900.000000) scale(0.100000,-0.100000)"
fill="#000000" stroke="none">
<path d="M1390 8990 c-286 -7 -334 -10 -403 -29 -231 -64 -407 -163 -574 -324
-187 -180 -306 -378 -369 -616 -23 -87 -26 -125 -35 -401 -13 -371 -4 -6215
10 -6455 7 -139 13 -172 40 -255 85 -254 266 -501 486 -663 95 -70 310 -177
415 -207 68 -19 115 -22 535 -31 618 -14 6304 -5 6430 9 50 6 131 25 180 42
400 140 716 464 845 865 l32 100 10 355 c14 521 5 6450 -11 6557 -29 210 -163
466 -345 661 -127 135 -363 284 -551 347 -61 21 -112 29 -220 36 -174 12
-6029 20 -6475 9z m5455 -371 c720 -5 1054 -10 1085 -18 76 -19 261 -116 338
-176 141 -110 255 -271 315 -443 l30 -87 9 -405 c12 -553 3 -6273 -10 -6365
-23 -157 -117 -330 -257 -471 -152 -153 -326 -245 -505 -266 -118 -14 -5585
-22 -6240 -10 -571 11 -545 7 -724 100 -212 109 -362 279 -456 517 -30 75 -32
92 -41 260 -11 233 -11 6267 1 6490 9 186 18 221 85 355 51 102 86 151 174
243 114 119 243 197 413 249 69 21 96 22 498 28 630 8 4089 8 5285 -1z"/>
<path d="M1924 7856 c-204 -39 -362 -119 -500 -252 -164 -158 -260 -355 -283
-576 -49 -488 288 -934 769 -1018 91 -16 271 -14 358 5 326 68 636 376 719
711 27 109 22 304 -10 424 -93 353 -343 600 -695 691 -100 26 -266 33 -358 15z
m312 -391 c77 -21 152 -66 222 -137 106 -105 160 -223 169 -367 11 -174 -33
-287 -162 -416 -91 -92 -166 -136 -271 -161 -258 -61 -555 97 -647 344 -18 49
-21 80 -22 212 0 150 1 157 28 212 79 162 247 301 395 328 63 12 214 3 288
-15z"/>
<path d="M6770 7851 c-248 -55 -448 -190 -591 -397 -43 -63 -104 -190 -129
-269 -31 -99 -38 -296 -16 -425 66 -375 363 -674 741 -745 117 -22 306 -16
418 14 287 76 526 293 634 576 67 175 72 437 12 619 -99 299 -350 533 -658
613 -132 34 -295 40 -411 14z m360 -391 c137 -45 260 -156 332 -298 l33 -67 0
-165 0 -165 -34 -68 c-95 -185 -242 -291 -441 -318 -178 -24 -326 27 -461 161
-119 117 -159 217 -159 395 0 55 6 123 14 151 47 177 226 348 409 389 86 20
224 13 307 -15z"/>
<path d="M4345 5419 c-226 -33 -478 -194 -616 -396 -45 -64 -104 -196 -131
-288 -20 -69 -23 -102 -22 -240 0 -145 3 -168 27 -248 88 -286 291 -511 557
-616 119 -47 208 -64 340 -65 185 -1 357 50 515 152 86 56 207 175 264 261
273 404 178 971 -212 1264 -205 154 -454 215 -722 176z m314 -385 c139 -37
280 -154 346 -287 31 -63 38 -89 46 -181 7 -73 7 -129 0 -174 -25 -159 -149
-321 -306 -398 l-79 -39 -166 0 -165 0 -80 40 c-379 188 -418 706 -72 961 130
96 299 124 476 78z"/>
<path d="M1881 2970 c-354 -75 -655 -377 -726 -729 -14 -65 -16 -116 -12 -230
5 -166 19 -227 78 -350 133 -281 398 -485 689 -531 82 -12 234 -13 322 0 272
39 547 245 673 503 61 126 86 226 92 375 12 261 -56 460 -226 661 -101 120
-309 249 -461 286 -77 19 -364 29 -429 15z m296 -375 c102 -19 189 -63 263
-132 69 -64 146 -174 167 -241 22 -67 22 -261 1 -330 -49 -153 -151 -273 -295
-344 l-86 -43 -156 0 -156 0 -75 36 c-103 50 -171 107 -230 195 -69 104 -94
191 -94 319 1 167 56 291 183 408 139 128 286 169 478 132z"/>
<path d="M6795 2973 c-283 -45 -552 -247 -688 -518 -13 -27 -37 -88 -53 -135
-26 -80 -28 -95 -29 -260 0 -200 9 -242 80 -397 54 -116 91 -169 179 -262 132
-138 314 -236 496 -268 130 -23 329 -13 440 22 169 54 282 126 412 264 125
132 201 275 234 440 21 105 15 342 -11 436 -68 245 -253 470 -485 589 -144 74
-201 88 -385 91 -88 2 -173 1 -190 -2z m270 -378 c105 -27 221 -91 289 -159
74 -76 110 -140 136 -242 51 -200 -1 -397 -144 -539 -140 -139 -324 -192 -521
-150 -98 21 -167 58 -244 130 -71 68 -119 139 -158 235 -21 53 -24 77 -24 180
0 93 5 131 20 176 96 272 383 436 646 369z"/>
</g>
</svg>
